<?xml version="1.0" encoding="UTF-8" standalone="no"?>
<svg width="14px" height="18px" viewBox="0 0 14 18" version="1.1" xmlns="http://www.w3.org/2000/svg" xmlns:xlink="http://www.w3.org/1999/xlink">
    <!-- Generator: Sketch 44.1 (41455) - http://www.bohemiancoding.com/sketch -->
    <title>Fill 1</title>
    <desc>Created with Sketch.</desc>
    <defs></defs>
    <g id="Business-#1" stroke="none" stroke-width="1" fill="none" fill-rule="evenodd">
        <g id="Love---Japanese-Copy" transform="translate(-792.000000, -1674.000000)" fill="#1E1F1D">
            <g id="left-arrow-(1)" transform="translate(1344.500000, 1780.500000) rotate(-270.000000) translate(-1344.500000, -1780.500000) translate(1238.000000, 1228.000000)">
                <path d="M6.41718581,1091.20847 C6.69436077,1090.93051 7.13081373,1090.93051 7.40798868,1091.20847 C7.67657512,1091.47705 7.67657512,1091.92209 7.40798868,1092.19068 L2.38214307,1097.21653 L17.0957406,1097.21653 C17.4830048,1097.21653 17.7999992,1097.52493 17.7999992,1097.90907 C17.7999992,1098.29634 17.4830048,1098.61333 17.0957406,1098.61333 L2.38214307,1098.61333 L7.40798868,1103.63059 C7.67657512,1103.90776 7.67657512,1104.35671 7.40798868,1104.62217 C7.13081373,1104.89935 6.69436077,1104.89935 6.41718581,1104.62217 L0.201439827,1098.40643 C-0.0671466091,1098.13784 -0.0671466091,1097.6928 0.201439827,1097.42421 L6.41718581,1091.20847 Z" id="Fill-1"></path>
            </g>
        </g>
    </g>
</svg>