<?xml version="1.0" standalone="no"?><!DOCTYPE svg PUBLIC "-//W3C//DTD SVG 1.1//EN" "http://www.w3.org/Graphics/SVG/1.1/DTD/svg11.dtd"><svg width="100%" height="100%" viewBox="0 0 24 30" version="1.1" xmlns="http://www.w3.org/2000/svg" xmlns:xlink="http://www.w3.org/1999/xlink" xml:space="preserve" style="fill-rule:evenodd;clip-rule:evenodd;stroke-linejoin:round;stroke-miterlimit:1.41421;"><path d="M23.995,29.988l-23.995,0l1.052,-20.261l21.89,0l1.053,20.261ZM21.402,11.35l-18.81,0l-0.753,17.015l20.407,0l-0.844,-17.015ZM12.119,1.024c3.061,0 5.565,2.504 5.565,5.564l0,0.645l-1.623,0l0,-0.645c0,-2.173 -1.768,-3.941 -3.942,-3.941l-0.244,0c-2.173,0 -3.941,1.768 -3.941,3.941l0,0.645l-1.623,0l0,-0.645c0,-3.06 2.503,-5.564 5.564,-5.564l0.244,0Z" style="fill:#fff;"/></svg>