<?xml version="1.0" encoding="UTF-8" standalone="no"?><!DOCTYPE svg PUBLIC "-//W3C//DTD SVG 1.1//EN" "http://www.w3.org/Graphics/SVG/1.1/DTD/svg11.dtd"><svg width="100%" height="100%" viewBox="0 0 18 15" version="1.1" xmlns="http://www.w3.org/2000/svg" xmlns:xlink="http://www.w3.org/1999/xlink" xml:space="preserve" style="fill-rule:evenodd;clip-rule:evenodd;stroke-linejoin:round;stroke-miterlimit:1.41421;"><g><clipPath id="_clip1"><path d="M-22.049,-21.78l62.056,0l0,58.947l-62.056,0l0,-58.947Zm39.407,22.181c0.161,0 0.299,0.052 0.415,0.156c0.114,0.103 0.172,0.247 0.172,0.433l0,1.809c0,0.087 -0.041,0.128 -0.128,0.128c-0.051,0.024 -0.085,0.035 -0.106,0.035c-0.026,0 -0.063,0.013 -0.112,0.037l-8.52,5.037c-0.024,0.023 -0.056,0.034 -0.099,0.034l-0.065,-0.034l-8.802,-5.037c-0.069,-0.001 -0.099,-0.042 -0.099,-0.129l0,-1.88c0,-0.186 0.057,-0.33 0.172,-0.433c0.115,-0.104 0.254,-0.156 0.415,-0.156l16.757,0Zm0,-0.028l-16.757,0c-0.168,0 -0.313,0.054 -0.433,0.163c-0.121,0.109 -0.182,0.261 -0.182,0.454l0,1.88c0,0.101 0.041,0.155 0.12,0.155l8.796,5.035l0.071,0.036c0.057,0.001 0.096,-0.012 0.122,-0.038l8.517,-5.035c0.045,-0.022 0.078,-0.033 0.099,-0.033c0.026,0 0.064,-0.012 0.112,-0.037c0.096,0.002 0.149,-0.052 0.149,-0.154l0,-1.809c0,-0.193 -0.06,-0.345 -0.181,-0.454c-0.121,-0.109 -0.265,-0.163 -0.433,-0.163Zm-12.029,7.558l-5.091,4.718c-0.004,0.023 -0.021,0.031 -0.061,0.031l-0.071,0c-0.061,-0.021 -0.092,-0.063 -0.092,-0.128l0,-7.625c0,-0.064 0.019,-0.093 0.057,-0.093c0.049,-0.023 0.105,-0.023 0.172,-0.001l5.053,2.908c0.045,0.002 0.064,0.03 0.064,0.094c0,0.044 -0.011,0.076 -0.032,0.097l0.001,-0.001Zm0.019,0.02c0.026,-0.026 0.039,-0.065 0.039,-0.116c0,-0.078 -0.028,-0.12 -0.084,-0.12l-5.048,-2.907c-0.077,-0.025 -0.14,-0.025 -0.19,0c-0.05,-0.002 -0.079,0.041 -0.079,0.119l0,7.625c0,0.077 0.04,0.13 0.116,0.155l0.075,0.001c0.054,0 0.084,-0.015 0.084,-0.049l5.086,-4.707l0.001,-0.001Zm6.131,0.568l5.798,6.242c0.02,0.021 0.031,0.076 0.031,0.168c-0.04,0.035 -0.084,0.057 -0.127,0.057l-16.58,0c-0.045,0 -0.138,-0.023 -0.278,-0.07c-0.04,-0.042 -0.062,-0.075 -0.062,-0.093c0,-0.068 0.011,-0.112 0.032,-0.132l6.468,-6.03c0.043,-0.042 0.094,-0.042 0.16,0.002l1.698,0.958c0.264,0.144 0.516,0.144 0.756,-0.001l1.944,-1.134c0.087,-0.044 0.137,-0.034 0.157,0.028l0.003,0.005Zm0.023,-0.014c-0.026,-0.081 -0.095,-0.094 -0.196,-0.044l-1.945,1.136c-0.231,0.139 -0.474,0.139 -0.729,-0.001l-1.696,-0.957c-0.075,-0.05 -0.141,-0.05 -0.194,0.002l-6.468,6.03c-0.028,0.027 -0.04,0.077 -0.04,0.152c0,0.028 0.025,0.066 0.074,0.116c0.149,0.051 0.244,0.075 0.293,0.075l16.58,0c0.051,0 0.102,-0.026 0.151,-0.075c0.004,-0.109 -0.008,-0.17 -0.036,-0.197l-5.797,-6.242l0.003,0.005Zm6.343,-3.815c0.067,0.045 0.1,0.089 0.1,0.131l0,8.086c0,0.018 -0.035,0.065 -0.102,0.132l-0.061,-0.004c-0.019,0 -0.052,-0.022 -0.097,-0.067l-4.807,-5.213c-0.043,-0.043 -0.052,-0.071 -0.036,-0.087c0.004,-0.074 0.023,-0.103 0.061,-0.103l4.815,-2.875l0.135,0.002l-0.008,-0.002Zm0.008,-0.025l-0.142,0l-4.815,2.874c-0.049,-0.001 -0.077,0.041 -0.077,0.119c-0.027,0.021 -0.012,0.064 0.039,0.116l4.808,5.214c0.05,0.05 0.087,0.075 0.116,0.075l0.071,0c0.083,-0.078 0.119,-0.127 0.119,-0.156l0,-8.086c0,-0.054 -0.038,-0.104 -0.112,-0.154l-0.007,-0.002Z"/></clipPath><g clip-path="url(#_clip1)"><clipPath id="_clip2"><path d="M17.358,0.387c0.165,0 0.306,0.053 0.424,0.159c0.118,0.107 0.177,0.255 0.177,0.444l0,1.809c0,0.094 -0.048,0.142 -0.142,0.142c-0.047,0.023 -0.082,0.035 -0.106,0.035c-0.023,0 -0.059,0.012 -0.106,0.035l-8.519,5.037c-0.024,0.024 -0.06,0.036 -0.106,0.036l-0.072,-0.036l-8.802,-5.037c-0.07,0 -0.106,-0.047 -0.106,-0.141l0,-1.88c0,-0.189 0.059,-0.337 0.177,-0.444c0.118,-0.106 0.259,-0.159 0.424,-0.159l16.757,0Zm-12.02,7.555l-5.09,4.717c0,0.023 -0.024,0.035 -0.071,0.035l-0.071,0c-0.07,-0.023 -0.106,-0.071 -0.106,-0.142l0,-7.625c0,-0.071 0.024,-0.107 0.071,-0.107c0.047,-0.023 0.106,-0.023 0.177,0l5.055,2.909c0.047,0 0.071,0.035 0.071,0.106c0,0.047 -0.012,0.083 -0.036,0.107Zm6.151,0.567l5.798,6.243c0.023,0.023 0.035,0.082 0.035,0.177c-0.047,0.047 -0.094,0.071 -0.141,0.071l-16.58,0c-0.047,0 -0.141,-0.024 -0.283,-0.071c-0.047,-0.047 -0.071,-0.083 -0.071,-0.106c0,-0.071 0.012,-0.119 0.036,-0.142l6.469,-6.03c0.047,-0.047 0.106,-0.047 0.177,0l1.697,0.958c0.259,0.141 0.506,0.141 0.742,0l1.944,-1.135c0.095,-0.048 0.154,-0.036 0.177,0.035Zm6.364,-3.83c0.07,0.047 0.106,0.094 0.106,0.142l0,8.086c0,0.024 -0.036,0.071 -0.106,0.142l-0.071,0c-0.024,0 -0.059,-0.024 -0.106,-0.071l-4.808,-5.214c-0.047,-0.047 -0.059,-0.082 -0.035,-0.106c0,-0.071 0.023,-0.107 0.07,-0.107l4.808,-2.872l0.142,0Z"/></clipPath><g clip-path="url(#_clip2)"><path d="M17.358,0.387c0.165,0 0.306,0.053 0.424,0.159c0.118,0.107 0.177,0.255 0.177,0.444l0,1.809c0,0.094 -0.048,0.142 -0.142,0.142c-0.047,0.023 -0.082,0.035 -0.106,0.035c-0.023,0 -0.059,0.012 -0.106,0.035l-8.519,5.037c-0.024,0.024 -0.06,0.036 -0.106,0.036l-0.072,-0.036l-8.802,-5.037c-0.07,0 -0.106,-0.047 -0.106,-0.141l0,-1.88c0,-0.189 0.059,-0.337 0.177,-0.444c0.118,-0.106 0.259,-0.159 0.424,-0.159l16.757,0Zm-12.02,7.555l-5.09,4.717c0,0.023 -0.024,0.035 -0.071,0.035l-0.071,0c-0.07,-0.023 -0.106,-0.071 -0.106,-0.142l0,-7.625c0,-0.071 0.024,-0.107 0.071,-0.107c0.047,-0.023 0.106,-0.023 0.177,0l5.055,2.909c0.047,0 0.071,0.035 0.071,0.106c0,0.047 -0.012,0.083 -0.036,0.107Zm6.151,0.567l5.798,6.243c0.023,0.023 0.035,0.082 0.035,0.177c-0.047,0.047 -0.094,0.071 -0.141,0.071l-16.58,0c-0.047,0 -0.141,-0.024 -0.283,-0.071c-0.047,-0.047 -0.071,-0.083 -0.071,-0.106c0,-0.071 0.012,-0.119 0.036,-0.142l6.469,-6.03c0.047,-0.047 0.106,-0.047 0.177,0l1.697,0.958c0.259,0.141 0.506,0.141 0.742,0l1.944,-1.135c0.095,-0.048 0.154,-0.036 0.177,0.035Zm6.364,-3.83c0.07,0.047 0.106,0.094 0.106,0.142l0,8.086c0,0.024 -0.036,0.071 -0.106,0.142l-0.071,0c-0.024,0 -0.059,-0.024 -0.106,-0.071l-4.808,-5.214c-0.047,-0.047 -0.059,-0.082 -0.035,-0.106c0,-0.071 0.023,-0.107 0.07,-0.107l4.808,-2.872l0.142,0Z" style="fill:#393939;fill-rule:nonzero;"/></g></g></g></svg>