<?xml version="1.0" encoding="UTF-8"?>
<svg width="77px" height="86px" viewBox="0 0 77 86" version="1.1" xmlns="http://www.w3.org/2000/svg" xmlns:xlink="http://www.w3.org/1999/xlink">
    <!-- Generator: Sketch 45.2 (43514) - http://www.bohemiancoding.com/sketch -->
    <title>Fill 25</title>
    <desc>Created with Sketch.</desc>
    <defs></defs>
    <g id="Page-1" stroke="none" stroke-width="1" fill="none" fill-rule="evenodd">
        <g id="iStock-656353972" transform="translate(-1302.000000, -640.000000)" fill="#3C63F0">
            <g id="Group-26" transform="translate(1302.000000, 640.000000)">
                <path d="M37.6263824,7.2200628 C37.4917182,7.2200628 10.8163328,22.4560052 9.51509452,23.2748257 C8.21488812,24.0936461 7.14479761,25.0048225 7.14479761,26.6615538 L7.14479761,44.9506078 C16.4928689,43.9594584 32.2981159,41.3755562 48.93921,35.0592361 C48.0889163,34.0422889 45.1464254,30.5219285 45.1464254,30.5219285 L64.2470765,31.5378437 C63.9756842,31.763832 43.4927898,45.2859785 17.9819148,49.8439243 C12.8615449,50.7587458 7.08181784,51.217021 0.642733708,51.21875 C0.642733708,38.1170642 0.642733708,29.9313321 0.642733708,26.6615538 C0.642733708,21.7568863 4.39630575,18.7937572 6.19802034,17.651949 L34.1720642,1.59888873 C34.9625071,1.1243134 37.1640868,0.197864741 39.370826,0.175162724 C41.5780811,0.152563899 43.7904958,1.03402128 44.6036408,1.46272823 C44.6335662,1.49244723 53.7780072,6.88885414 72.0369639,17.651949 C75.687345,20.0470117 76.8461797,22.619047 76.8461797,26.6615538 C76.8461797,30.7040606 76.8461797,55.1819939 76.8461797,58.7002905 C76.8461797,62.2175552 75.4592929,65.8080855 72.0369639,67.8445596 C71.9471877,67.8894476 44.807443,83.8990129 44.807443,83.8990129 C44.3059348,84.217873 41.5951076,85.3751599 38.8698338,85.3751599 C36.1450758,85.3751599 33.8103798,83.7400987 33.7660077,83.6952107 C33.7660077,83.6952107 8.27473889,69.3341214 6.33268457,67.9121497 C4.04597236,66.1862804 0.0798268895,63.7164042 0.642733708,57.3453929 C1.23350209,57.3056644 4.93289887,57.0069265 7.14479761,56.7350182 L7.14479761,58.7673646 C7.19123356,59.3999254 7.17988255,60.0851135 8.66634867,61.4369154 C10.1517829,62.7876854 15.003823,65.4737467 15.003823,65.4737467 L15.003823,55.5168487 C17.3519338,55.0643562 19.7222307,54.5236354 22.1157456,53.8910747 L22.1833357,69.6049978 L28.5507354,73.2636341 L28.5507354,52.1296046 C28.7756917,52.1296046 35.1657934,50.0977741 35.6631739,49.961562 L35.6631739,77.3948851 C35.6631739,77.3948851 36.5939566,78.8189207 39.1014975,78.8189207 C41.6090384,78.8189207 42.4366301,77.8024895 42.4366301,77.8024895 L42.4366301,47.4560849 C43.7915277,46.8684123 48.6905197,44.7014016 49.8183972,44.2035051 L49.8183972,73.3998462 L55.9845744,69.7417258 L55.9845744,40.9529891 C56.5701833,40.5923366 62.982471,36.4141337 63.4349635,36.1448052 L63.4349635,65.4061566 C63.4349635,65.4061566 67.2133014,63.1039658 68.5150556,62.2903048 C69.8178418,61.4771599 70.2760098,61.1087681 70.2760098,58.7002905 C70.2760098,56.291297 70.2760098,28.203743 70.2760098,26.6615538 C70.2760098,25.1188486 70.2295738,24.1194439 68.7849,23.2748257 C67.3402263,22.4296915 42.8401069,7.99187977 41.2845028,7.1525759 C39.7283827,6.31337522 38.4746123,6.65509216 37.6263824,7.2200628 Z" id="Fill-25"></path>
            </g>
        </g>
    </g>
</svg>