<?xml version="1.0" encoding="UTF-8" standalone="no"?><!DOCTYPE svg PUBLIC "-//W3C//DTD SVG 1.1//EN" "http://www.w3.org/Graphics/SVG/1.1/DTD/svg11.dtd"><svg width="100%" height="100%" viewBox="0 0 60 60" version="1.1" xmlns="http://www.w3.org/2000/svg" xmlns:xlink="http://www.w3.org/1999/xlink" xml:space="preserve" style="fill-rule:evenodd;clip-rule:evenodd;stroke-linejoin:round;stroke-miterlimit:1.41421;"><g><path d="M30.194,0c1.463,0.014 2.924,0.124 4.371,0.345c2.682,0.411 5.306,1.189 7.778,2.307c3.075,1.392 5.909,3.307 8.352,5.636c2.438,2.325 4.483,5.058 6.02,8.057c1.288,2.513 2.216,5.207 2.748,7.98c0.611,3.183 0.701,6.466 0.272,9.679c-0.409,3.058 -1.294,6.048 -2.617,8.835c-1.524,3.21 -3.622,6.141 -6.164,8.623c-2.675,2.612 -5.836,4.72 -9.28,6.178c-1.871,0.792 -3.823,1.392 -5.816,1.787c-1.864,0.37 -3.763,0.56 -5.664,0.572c-1.905,0.012 -3.811,-0.154 -5.684,-0.501c-2.001,-0.371 -3.963,-0.947 -5.846,-1.718c-3.463,-1.416 -6.651,-3.486 -9.358,-6.068c-2.571,-2.451 -4.703,-5.355 -6.265,-8.545c-1.355,-2.767 -2.276,-5.741 -2.723,-8.789c-0.47,-3.208 -0.42,-6.493 0.151,-9.684c0.498,-2.783 1.394,-5.493 2.652,-8.024c1.501,-3.019 3.514,-5.778 5.926,-8.133c2.413,-2.356 5.222,-4.304 8.279,-5.732c2.455,-1.147 5.065,-1.957 7.738,-2.4c1.441,-0.239 2.896,-0.367 4.356,-0.4c0.258,-0.004 0.516,-0.006 0.774,-0.005Zm-0.364,3.75c-1.281,0.012 -2.56,0.109 -3.827,0.302c-2.345,0.359 -4.639,1.039 -6.8,2.017c-2.692,1.218 -5.172,2.894 -7.31,4.933c-2.134,2.035 -3.925,4.428 -5.271,7.054c-1.125,2.196 -1.937,4.552 -2.402,6.976c-0.545,2.841 -0.616,5.774 -0.215,8.639c0.374,2.669 1.164,5.276 2.334,7.703c1.374,2.849 3.266,5.442 5.554,7.624c2.37,2.259 5.159,4.072 8.19,5.311c3.194,1.306 6.638,1.962 10.087,1.94c3.443,-0.021 6.872,-0.72 10.043,-2.062c3.013,-1.276 5.779,-3.122 8.121,-5.408c2.263,-2.21 4.125,-4.826 5.464,-7.692c1.142,-2.446 1.901,-5.067 2.241,-7.744c0.372,-2.923 0.254,-5.909 -0.356,-8.792c-0.509,-2.41 -1.363,-4.746 -2.526,-6.918c-1.393,-2.599 -3.225,-4.958 -5.395,-6.954c-2.136,-1.966 -4.597,-3.575 -7.256,-4.74c-2.176,-0.952 -4.482,-1.605 -6.835,-1.934c-1.273,-0.179 -2.556,-0.259 -3.841,-0.255Z" style="fill:#2b3e50;fill-rule:nonzero;"/><path d="M15.19,35.082l15.246,14.498l2.849,-2.959l-15.321,-14.483l-0.047,-0.049l-0.051,-0.045c-1.51,-1.352 -2.376,-3.301 -2.376,-5.345c0,-3.916 3.104,-7.102 6.918,-7.102c2.437,0 4.446,2.317 5.892,4.326l1.7,2.28l1.699,-2.279c1.502,-1.947 3.456,-4.327 5.892,-4.327c3.815,0 6.919,3.186 6.919,7.102c0,2.045 -0.866,3.993 -2.376,5.345l-0.052,0.046l-8.308,8.586l2.804,2.874l8.232,-8.468c2.346,-2.128 3.69,-5.179 3.69,-8.383c0,-6.175 -4.894,-11.198 -10.909,-11.198c-3.03,0 -5.682,1.79 -7.591,3.954c-1.909,-2.164 -4.562,-3.954 -7.592,-3.954c-6.015,0 -10.908,5.023 -10.908,11.198c0,3.204 1.344,6.255 3.69,8.383Z" style="fill:#2b3e50;"/></g></svg>